<svg width="83" height="70" viewBox="0 0 83 70" fill="none" xmlns="http://www.w3.org/2000/svg">
<path opacity="0.5" fill-rule="evenodd" clip-rule="evenodd" d="M78.7969 65.8993H82.0415V66.5868H78.7969V69.3368H77.9857V66.5868H70.6853V69.3368H69.8741V66.5868H62.5737V69.3368H61.7626V66.5868H54.4622V69.3368H53.651V66.5868H46.3506V69.3368H45.5394V66.5868H38.239V69.3368H37.4279V66.5868H30.1274V69.3368H29.3163V66.5868H22.0159V69.3368H21.2047V66.5868H13.9043V69.3368H13.0931V66.5868H0.925781V65.8993H13.0931V59.7118H0.925781V59.0243H13.0931V52.8368H0.925781V52.1493H13.0931V45.9619H0.925781V45.2744H13.0931V39.0869H0.925781V38.3994H13.0931V32.2119H0.925781V31.5244H13.0931V25.3369H0.925781V24.6494H13.0931V18.4619H0.925781V17.7744H13.0931V11.5869H0.925781V10.8994H13.0931V0.586914H13.9043V10.8994H21.2047V0.586914H22.0159V10.8994H29.3163V0.586914H30.1274V10.8994H37.4279V0.586914H38.239V10.8994H45.5394V0.586914H46.3506V10.8994H53.651V0.586914H54.4622V10.8994H61.7626V0.586914H62.5737V10.8994H69.8741V0.586914H70.6853V10.8994H77.9857V0.586914H78.7969V10.8994H82.0415V11.5869H78.7969V17.7744H82.0415V18.4619H78.7969V24.6494H82.0415V25.3369H78.7969V31.5244H82.0415V32.2119H78.7969V38.3994H82.0415V39.0869H78.7969V45.2744H82.0415V45.9619H78.7969V52.1493H82.0415V52.8368H78.7969V59.0243H82.0415V59.7118H78.7969V65.8993ZM77.9857 65.8993V59.7118H70.6853V65.8993H77.9857ZM69.8741 65.8993V59.7118H62.5737V65.8993H69.8741ZM61.7626 65.8993V59.7118H54.4622V65.8993H61.7626ZM53.651 65.8993V59.7118H46.3506V65.8993H53.651ZM45.5394 65.8993V59.7118H38.239V65.8993H45.5394ZM37.4279 65.8993V59.7118H30.1274V65.8993H37.4279ZM29.3163 65.8993V59.7118H22.0159V65.8993H29.3163ZM21.2047 65.8993V59.7118H13.9043V65.8993H21.2047ZM13.9043 59.0243H21.2047V52.8368H13.9043V59.0243ZM22.0159 59.0243H29.3163V52.8368H22.0159V59.0243ZM30.1274 59.0243H37.4279V52.8368H30.1274V59.0243ZM38.239 59.0243H45.5394V52.8368H38.239V59.0243ZM46.3506 59.0243H53.651V52.8368H46.3506V59.0243ZM54.4622 59.0243H61.7626V52.8368H54.4622V59.0243ZM62.5737 59.0243H69.8741V52.8368H62.5737V59.0243ZM70.6853 59.0243H77.9857V52.8368H70.6853V59.0243ZM77.9857 52.1493V45.9619H70.6853V52.1493H77.9857ZM69.8741 52.1493V45.9619H62.5737V52.1493H69.8741ZM61.7626 52.1493V45.9619H54.4622V52.1493H61.7626ZM53.651 52.1493V45.9619H46.3506V52.1493H53.651ZM45.5394 52.1493V45.9619H38.239V52.1493H45.5394ZM37.4279 52.1493V45.9619H30.1274V52.1493H37.4279ZM29.3163 52.1493V45.9619H22.0159V52.1493H29.3163ZM21.2047 52.1493V45.9619H13.9043V52.1493H21.2047ZM13.9043 45.2744H21.2047V39.0869H13.9043V45.2744ZM22.0159 45.2744H29.3163V39.0869H22.0159V45.2744ZM30.1274 45.2744H37.4279V39.0869H30.1274V45.2744ZM38.239 45.2744H45.5394V39.0869H38.239V45.2744ZM46.3506 45.2744H53.651V39.0869H46.3506V45.2744ZM54.4622 45.2744H61.7626V39.0869H54.4622V45.2744ZM62.5737 45.2744H69.8741V39.0869H62.5737V45.2744ZM70.6853 45.2744H77.9857V39.0869H70.6853V45.2744ZM77.9857 38.3994V32.2119H70.6853V38.3994H77.9857ZM69.8741 38.3994V32.2119H62.5737V38.3994H69.8741ZM61.7626 38.3994V32.2119H54.4622V38.3994H61.7626ZM53.651 38.3994V32.2119H46.3506V38.3994H53.651ZM45.5394 38.3994V32.2119H38.239V38.3994H45.5394ZM37.4279 38.3994V32.2119H30.1274V38.3994H37.4279ZM29.3163 38.3994V32.2119H22.0159V38.3994H29.3163ZM21.2047 38.3994V32.2119H13.9043V38.3994H21.2047ZM13.9043 31.5244H21.2047V25.3369H13.9043V31.5244ZM22.0159 31.5244H29.3163V25.3369H22.0159V31.5244ZM30.1274 31.5244H37.4279V25.3369H30.1274V31.5244ZM38.239 31.5244H45.5394V25.3369H38.239V31.5244ZM46.3506 31.5244H53.651V25.3369H46.3506V31.5244ZM54.4622 31.5244H61.7626V25.3369H54.4622V31.5244ZM62.5737 31.5244H69.8741V25.3369H62.5737V31.5244ZM70.6853 31.5244H77.9857V25.3369H70.6853V31.5244ZM77.9857 24.6494V18.4619H70.6853V24.6494H77.9857ZM69.8741 24.6494V18.4619H62.5737V24.6494H69.8741ZM61.7626 24.6494V18.4619H54.4622V24.6494H61.7626ZM53.651 24.6494V18.4619H46.3506V24.6494H53.651ZM45.5394 24.6494V18.4619H38.239V24.6494H45.5394ZM37.4279 24.6494V18.4619H30.1274V24.6494H37.4279ZM29.3163 24.6494V18.4619H22.0159V24.6494H29.3163ZM21.2047 24.6494V18.4619H13.9043V24.6494H21.2047ZM13.9043 17.7744H21.2047V11.5869H13.9043V17.7744ZM22.0159 17.7744H29.3163V11.5869H22.0159V17.7744ZM30.1274 17.7744H37.4279V11.5869H30.1274V17.7744ZM38.239 17.7744H45.5394V11.5869H38.239V17.7744ZM46.3506 17.7744H53.651V11.5869H46.3506V17.7744ZM54.4622 17.7744H61.7626V11.5869H54.4622V17.7744ZM62.5737 17.7744H69.8741V11.5869H62.5737V17.7744ZM70.6853 17.7744H77.9857V11.5869H70.6853V17.7744Z" fill="white" fill-opacity="0.08"/>
<path fill-rule="evenodd" clip-rule="evenodd" d="M5.79272 4.02441V0.586914H4.98157V4.02441H0.925781V4.71191H4.98157V69.3368H5.79272V4.71191H82.0415V4.02441H5.79272Z" fill="white" fill-opacity="0.08"/>
</svg>
